<svg height="345.782037" viewBox="0 0 45.599999 54.7" width="289.199522" xmlns="http://www.w3.org/2000/svg"><path d="m7.3 7.3a7.3 7.3 0 1 0 7.3-7.3 7.3 7.3 0 0 0 -7.3 7.3" fill="#eb6100"/><g fill="#006532"><path d="m3.7 18.2h14.5a3.7 3.7 0 0 1 3.7 3.7v10.9a3.7 3.7 0 0 0 -3.7-3.7h-14.5a3.7 3.7 0 0 1 -3.7-3.6v-10.9a3.7 3.7 0 0 0 3.7 3.7"/><path d="m41.9 40.1h-14.5a3.7 3.7 0 0 0 -3.7 3.7v10.9a3.7 3.7 0 0 1 3.7-3.7h14.5a3.7 3.7 0 0 0 3.7-3.7v-10.8a3.7 3.7 0 0 1 -3.7 3.7"/><path d="m41.9 25.5h-14.5a3.7 3.7 0 0 0 -3.7 3.7v10.9a3.7 3.7 0 0 1 3.7-3.7h14.5a3.7 3.7 0 0 0 3.7-3.7v-10.8a3.7 3.7 0 0 1 -3.7 3.7"/><path d="m3.7 32.9h14.5a3.7 3.7 0 0 1 3.7 3.7v10.8a3.7 3.7 0 0 0 -3.7-3.7h-14.5a3.7 3.7 0 0 1 -3.7-3.6v-10.9a3.7 3.7 0 0 0 3.7 3.7"/><path d="m41.9 11h-14.5a3.7 3.7 0 0 0 -3.7 3.7v10.9a3.7 3.7 0 0 1 3.7-3.7h14.5a3.7 3.7 0 0 0 3.7-3.7v-10.9a3.7 3.7 0 0 1 -3.7 3.7"/></g></svg>